<svg width="21" height="21" viewBox="0 0 21 21" fill="none" xmlns="http://www.w3.org/2000/svg">
<path d="M1.34375 4.62509C1.34375 3.18093 1.34375 2.45885 1.66881 1.9284C1.8507 1.63159 2.10025 1.38204 2.39706 1.20015C2.92751 0.875092 3.64959 0.875092 5.09375 0.875092C6.53791 0.875092 7.25999 0.875092 7.79044 1.20015C8.08725 1.38204 8.3368 1.63159 8.51869 1.9284C8.84375 2.45885 8.84375 3.18093 8.84375 4.62509C8.84375 6.06925 8.84375 6.79133 8.51869 7.32178C8.3368 7.61859 8.08725 7.86815 7.79044 8.05003C7.25999 8.37509 6.53791 8.37509 5.09375 8.37509C3.64959 8.37509 2.92751 8.37509 2.39706 8.05003C2.10025 7.86815 1.8507 7.61859 1.66881 7.32178C1.34375 6.79133 1.34375 6.06925 1.34375 4.62509Z" stroke="#F8FAFD" stroke-width="1.0625"/>
<path d="M2.5453 12.8581C3.52673 11.8766 4.01745 11.3859 4.59884 11.2464C4.92416 11.1682 5.26334 11.1682 5.58866 11.2464C6.17005 11.3859 6.66077 11.8766 7.6422 12.8581C8.62363 13.8395 9.11435 14.3302 9.25392 14.9116C9.33203 15.2369 9.33203 15.5761 9.25393 15.9014C9.11435 16.4828 8.62363 16.9735 7.6422 17.955C6.66077 18.9364 6.17005 19.4271 5.58866 19.5667C5.26334 19.6448 4.92416 19.6448 4.59884 19.5667C4.01745 19.4271 3.52673 18.9364 2.5453 17.955C1.56387 16.9735 1.07316 16.4828 0.933576 15.9014C0.855474 15.5761 0.855475 15.2369 0.933577 14.9116C1.07316 14.3302 1.56387 13.8395 2.5453 12.8581Z" stroke="#F8FAFD" stroke-width="1.0625"/>
<path d="M12.125 15.8751C12.125 14.4309 12.125 13.7088 12.4501 13.1784C12.6319 12.8816 12.8815 12.632 13.1783 12.4501C13.7088 12.1251 14.4308 12.1251 15.875 12.1251C17.3192 12.1251 18.0412 12.1251 18.5717 12.4501C18.8685 12.632 19.1181 12.8816 19.2999 13.1784C19.625 13.7088 19.625 14.4309 19.625 15.8751C19.625 17.3192 19.625 18.0413 19.2999 18.5717C19.1181 18.8686 18.8685 19.1181 18.5717 19.3C18.0412 19.6251 17.3192 19.6251 15.875 19.6251C14.4308 19.6251 13.7088 19.6251 13.1783 19.3C12.8815 19.1181 12.6319 18.8686 12.4501 18.5717C12.125 18.0413 12.125 17.3192 12.125 15.8751Z" stroke="#F8FAFD" stroke-width="1.0625"/>
<path d="M15.875 0.875092V8.37509M19.625 4.62509L12.125 4.62509" stroke="#F8FAFD" stroke-width="1.0625" stroke-linecap="round" stroke-linejoin="round"/>
</svg>
