<svg width="2111" height="1434" viewBox="0 0 2111 1434" fill="none" xmlns="http://www.w3.org/2000/svg">
<g filter="url(#filter0_f_2137_24301)">
<path fill-rule="evenodd" clip-rule="evenodd" d="M1469.58 324.224C1519.67 297.724 1570.33 272.67 1630.61 265.574C1701.3 257.254 1787.23 243.159 1838.99 280.741C1891.11 318.582 1865.49 384.729 1870.08 439.447C1873.56 480.956 1876.22 520.781 1862.48 561.037C1847.35 605.329 1826.37 647.365 1787.23 682.1C1736.7 726.935 1683.13 775.171 1607.25 787.528C1521.84 801.439 1418.5 798.688 1355.84 752.358C1293.7 706.404 1306.6 629.317 1304.14 563.387C1302.24 512.547 1312.2 462.561 1343.33 417.56C1371.35 377.054 1420.2 350.348 1469.58 324.224Z" fill="#E1CDC7"/>
</g>
<g filter="url(#filter1_f_2137_24301)">
<path fill-rule="evenodd" clip-rule="evenodd" d="M1547.59 716.657C1611.8 709.603 1650.89 770.735 1699.25 803.69C1741.75 832.659 1782.3 860.255 1812.41 897.152C1851.91 945.562 1920.88 995.186 1900.22 1049.97C1879.66 1104.52 1788.84 1122 1719.68 1143.12C1664.77 1159.9 1606.73 1156.6 1547.59 1157.7C1486.56 1158.84 1425.2 1168.27 1369.25 1149.67C1303.94 1127.96 1217.41 1100 1211.32 1045.92C1204.91 989.021 1296.86 957.256 1342.47 911.928C1369.78 884.781 1396.64 860.553 1424.69 833.847C1466.72 793.83 1480.99 723.971 1547.59 716.657Z" fill="#ACA1AB"/>
</g>
<g filter="url(#filter2_f_2137_24301)">
<path fill-rule="evenodd" clip-rule="evenodd" d="M965.999 592.243C1047.35 588.883 1110.14 643.665 1171.03 684.851C1226.16 722.145 1286.58 761.941 1298.72 817.304C1310.29 870.041 1239.78 912.272 1232.55 965.454C1221.97 1043.35 1310.42 1132.38 1247.5 1194.35C1187.99 1252.99 1058.48 1251.24 965.999 1228.05C881.703 1206.91 867.26 1117.74 793.284 1080.43C713.226 1040.04 554.345 1078.08 528.974 1007.6C503.063 935.614 653.585 898.607 704.95 835.023C738.938 792.949 735.431 739.369 776.531 701.145C827.907 653.364 884.981 595.589 965.999 592.243Z" fill="#F4B895"/>
</g>
<g filter="url(#filter3_f_2137_24301)">
<path fill-rule="evenodd" clip-rule="evenodd" d="M543.426 682.142C598.931 683.451 637.693 720.871 683.969 744.223C732.953 768.94 787.996 785.973 821.747 822.584C865.182 869.699 916.774 923.492 901.142 979.796C885.31 1036.82 817.184 1083.78 744.265 1101.67C677.339 1118.08 613.643 1070.39 543.426 1067.53C479.513 1064.91 418.402 1101.25 357.669 1085.87C286.91 1067.97 197.649 1034.94 191.312 978.412C184.627 918.791 287.197 888.84 329.947 838.611C357.557 806.171 359.822 764.254 396.405 737.44C436.763 707.86 487.412 680.82 543.426 682.142Z" fill="#D3AE9F" style="mix-blend-mode:color-dodge"/>
</g>
<g filter="url(#filter4_f_2137_24301)">
<path fill-rule="evenodd" clip-rule="evenodd" d="M880.961 212.123C963.894 190.013 1058.26 180.319 1138.07 208.312C1225.24 238.886 1290.81 299.625 1325.05 367.886C1360.38 438.322 1365.41 518.475 1328.78 588.525C1293.36 656.26 1216.08 706.43 1130.73 739.485C1054.14 769.152 966.616 767.288 880.961 761.962C801.952 757.05 720.924 748.003 659.167 710.164C599.067 673.341 562.176 617.55 550.505 559.492C539.915 506.811 564.232 454.36 598.393 407.843C627.697 367.939 683.722 348.367 728.14 317.601C780.275 281.49 814.439 229.858 880.961 212.123Z" fill="#A29EAE"/>
</g>
<g filter="url(#filter5_f_2137_24301)">
<path fill-rule="evenodd" clip-rule="evenodd" d="M462.415 220.11C532.837 221.034 575.204 277.506 633.231 307.873C693.443 339.384 799.706 345.999 808.438 401.197C817.71 459.809 709.734 487.402 669.628 537.942C642.755 571.805 644.087 613.351 614.337 645.792C571.87 692.101 535.766 755.265 462.415 763.902C389.428 772.495 311.713 733.469 271.997 686.1C235.33 642.368 275.782 585.984 269.912 534.306C265.899 498.978 240.535 467.941 243.195 432.539C246.616 387.003 250.242 339.211 287.265 303.335C330.838 261.113 391.862 219.185 462.415 220.11Z" fill="#8E97B3"/>
</g>
<g filter="url(#filter6_f_2137_24301)">
<path fill-rule="evenodd" clip-rule="evenodd" d="M1303.39 614.506C1350.53 612.486 1399.83 617.5 1437.81 638.822C1475.63 660.058 1493.13 694.999 1507.38 729.054C1521.55 762.907 1541.24 801.432 1518.92 832.647C1496.96 863.378 1437.12 859.823 1399.51 879.968C1362.8 899.626 1348.27 947.011 1303.39 948.076C1258.75 949.135 1237 906.476 1202.81 884.636C1171.94 864.914 1123.89 855.952 1112.99 826.442C1102.12 797.021 1138.88 770.913 1149.95 741.537C1161.64 710.539 1150.86 673.644 1179.55 649.891C1210.12 624.581 1258.26 616.441 1303.39 614.506Z" fill="#E97E3B"/>
</g>
<defs>
<filter id="filter0_f_2137_24301" x="1113.58" y="65.6131" width="949.621" height="919.605" filterUnits="userSpaceOnUse" color-interpolation-filters="sRGB">
<feFlood flood-opacity="0" result="BackgroundImageFix"/>
<feBlend mode="normal" in="SourceGraphic" in2="BackgroundImageFix" result="shape"/>
<feGaussianBlur stdDeviation="95.1643" result="effect1_foregroundBlur_2137_24301"/>
</filter>
<filter id="filter1_f_2137_24301" x="1020.67" y="525.767" width="1073.66" height="825.657" filterUnits="userSpaceOnUse" color-interpolation-filters="sRGB">
<feFlood flood-opacity="0" result="BackgroundImageFix"/>
<feBlend mode="normal" in="SourceGraphic" in2="BackgroundImageFix" result="shape"/>
<feGaussianBlur stdDeviation="95.1643" result="effect1_foregroundBlur_2137_24301"/>
</filter>
<filter id="filter2_f_2137_24301" x="335.671" y="401.767" width="1154.66" height="1031.66" filterUnits="userSpaceOnUse" color-interpolation-filters="sRGB">
<feFlood flood-opacity="0" result="BackgroundImageFix"/>
<feBlend mode="normal" in="SourceGraphic" in2="BackgroundImageFix" result="shape"/>
<feGaussianBlur stdDeviation="95.1643" result="effect1_foregroundBlur_2137_24301"/>
</filter>
<filter id="filter3_f_2137_24301" x="0.671326" y="491.767" width="1093.66" height="803.657" filterUnits="userSpaceOnUse" color-interpolation-filters="sRGB">
<feFlood flood-opacity="0" result="BackgroundImageFix"/>
<feBlend mode="normal" in="SourceGraphic" in2="BackgroundImageFix" result="shape"/>
<feGaussianBlur stdDeviation="95.1643" result="effect1_foregroundBlur_2137_24301"/>
</filter>
<filter id="filter4_f_2137_24301" x="357.671" y="0.766541" width="1186.66" height="954.657" filterUnits="userSpaceOnUse" color-interpolation-filters="sRGB">
<feFlood flood-opacity="0" result="BackgroundImageFix"/>
<feBlend mode="normal" in="SourceGraphic" in2="BackgroundImageFix" result="shape"/>
<feGaussianBlur stdDeviation="95.1643" result="effect1_foregroundBlur_2137_24301"/>
</filter>
<filter id="filter5_f_2137_24301" x="52.6713" y="29.7665" width="946.657" height="925.657" filterUnits="userSpaceOnUse" color-interpolation-filters="sRGB">
<feFlood flood-opacity="0" result="BackgroundImageFix"/>
<feBlend mode="normal" in="SourceGraphic" in2="BackgroundImageFix" result="shape"/>
<feGaussianBlur stdDeviation="95.1643" result="effect1_foregroundBlur_2137_24301"/>
</filter>
<filter id="filter6_f_2137_24301" x="920.671" y="423.767" width="798.657" height="714.657" filterUnits="userSpaceOnUse" color-interpolation-filters="sRGB">
<feFlood flood-opacity="0" result="BackgroundImageFix"/>
<feBlend mode="normal" in="SourceGraphic" in2="BackgroundImageFix" result="shape"/>
<feGaussianBlur stdDeviation="95.1643" result="effect1_foregroundBlur_2137_24301"/>
</filter>
</defs>
</svg>
