<svg width="30" height="30" viewBox="0 0 30 30" fill="none" xmlns="http://www.w3.org/2000/svg">
<path d="M9.375 22.504C10.4105 22.504 11.25 23.3435 11.25 24.379C11.25 25.4145 10.4105 26.254 9.375 26.254C8.33947 26.254 7.5 25.4145 7.5 24.379C7.5 23.3435 8.33947 22.504 9.375 22.504Z" stroke="#5576AD" stroke-width="1.13"/>
<path d="M20.625 22.5041C21.6605 22.5041 22.5 23.3436 22.5 24.3791C22.5 25.4146 21.6605 26.2541 20.625 26.2541C19.5895 26.2541 18.75 25.4146 18.75 24.3791C18.75 23.3436 19.5895 22.5041 20.625 22.5041Z" stroke="#5576AD" stroke-width="1.13"/>
<path d="M2.82651 3.86879L3.01391 3.33578L3.01391 3.33578L2.82651 3.86879ZM2.6874 3.22098C2.39302 3.11748 2.07048 3.27222 1.96698 3.5666C1.86349 3.86098 2.01823 4.18352 2.3126 4.28701L2.5 3.754L2.6874 3.22098ZM5.7323 5.40772L6.19878 5.08895V5.08895L5.7323 5.40772ZM7.35965 18.2367L6.94963 18.6254L7.35965 18.2367ZM25.8222 12.3574L26.3756 12.4715L26.3763 12.468L25.8222 12.3574ZM25.1975 15.3883L25.7509 15.5024L25.1975 15.3883ZM25.9181 8.37535L25.4703 8.71985V8.71985L25.9181 8.37535ZM23.917 18.817L23.5601 18.379V18.379L23.917 18.817ZM6.1976 12.204H6.7626V8.80195H6.1976H5.6326V12.204H6.1976ZM2.82651 3.86879L3.01391 3.33578L2.6874 3.22098L2.5 3.754L2.3126 4.28701L2.63911 4.40181L2.82651 3.86879ZM13.6718 19.379V19.944H20.3005V19.379V18.814H13.6718V19.379ZM6.1976 8.80195H6.7626C6.7626 7.90986 6.76337 7.19579 6.70116 6.62105C6.63757 6.0336 6.50365 5.53508 6.19878 5.08895L5.7323 5.40772L5.26581 5.7265C5.42625 5.96128 5.52498 6.25543 5.57772 6.74265C5.63183 7.24257 5.6326 7.88516 5.6326 8.80195H6.1976ZM2.82651 3.86879L2.63911 4.40181C3.46527 4.69227 4.03822 4.89468 4.46616 5.10465C4.87931 5.30738 5.10704 5.49415 5.26581 5.7265L5.7323 5.40772L6.19878 5.08895C5.89226 4.64039 5.48059 4.34371 4.96392 4.09019C4.46203 3.84393 3.81474 3.61733 3.01391 3.33578L2.82651 3.86879ZM6.1976 12.204H5.6326C5.6326 14.0287 5.65072 15.3035 5.81561 16.2662C5.98748 17.2697 6.32298 17.9645 6.94963 18.6254L7.35965 18.2367L7.76966 17.848C7.31331 17.3667 7.06779 16.8835 6.92939 16.0755C6.78401 15.2266 6.7626 14.0562 6.7626 12.204H6.1976ZM13.6718 19.379V18.814C11.912 18.814 10.6519 18.8127 9.6939 18.6768C8.75533 18.5437 8.19013 18.2915 7.76966 17.848L7.35965 18.2367L6.94963 18.6254C7.61216 19.3242 8.46 19.6431 9.53525 19.7956C10.591 19.9453 11.9456 19.944 13.6718 19.944V19.379ZM6.1976 7.654V8.219H21.361V7.654V7.089H6.1976V7.654ZM25.8222 12.3574L25.2688 12.2434L24.6441 15.2743L25.1975 15.3883L25.7509 15.5024L26.3756 12.4715L25.8222 12.3574ZM21.361 7.654V8.219C22.4246 8.219 23.3899 8.21975 24.1585 8.30567C24.5414 8.34847 24.8491 8.40992 25.0809 8.49137C25.3172 8.5744 25.425 8.66092 25.4703 8.71985L25.9181 8.37535L26.3659 8.03085C26.1338 7.72911 25.7965 7.54512 25.4555 7.42527C25.1099 7.30383 24.7078 7.23003 24.2841 7.18266C23.4394 7.08824 22.4037 7.089 21.361 7.089V7.654ZM25.8222 12.3574L26.3763 12.468C26.59 11.3974 26.7629 10.5376 26.8049 9.85652C26.8477 9.16316 26.7639 8.5481 26.3659 8.03085L25.9181 8.37535L25.4703 8.71985C25.6273 8.92395 25.7125 9.21303 25.6771 9.78691C25.6409 10.3731 25.4883 11.1436 25.2681 12.2468L25.8222 12.3574ZM20.3005 19.379V19.944C21.2619 19.944 22.0342 19.945 22.6505 19.8696C23.2821 19.7923 23.8156 19.6285 24.2739 19.255L23.917 18.817L23.5601 18.379C23.3288 18.5675 23.0296 18.6847 22.5132 18.7479C21.9814 18.813 21.2902 18.814 20.3005 18.814V19.379ZM25.1975 15.3883L24.6441 15.2743C24.4443 16.2437 24.3038 16.9204 24.1328 17.4281C23.9666 17.9211 23.7914 18.1905 23.5601 18.379L23.917 18.817L24.2739 19.255C24.7322 18.8815 25.0004 18.3921 25.2036 17.789C25.4019 17.2007 25.5568 16.4441 25.7509 15.5024L25.1975 15.3883Z" fill="#5576AD"/>
<path d="M11.875 11.254L12.5352 15.1513" stroke="#5576AD" stroke-width="1.13" stroke-linecap="round"/>
<path d="M19.4102 11.254L18.7499 15.1513" stroke="#5576AD" stroke-width="1.13" stroke-linecap="round"/>
</svg>
