<svg width="26" height="26" viewBox="0 0 26 26" fill="none" xmlns="http://www.w3.org/2000/svg">
<path d="M9.86393 14.0542C9.92894 12.7303 10.1129 11.8784 10.6338 11.2252C10.8061 11.0091 11.0022 10.8131 11.2183 10.6407C11.8714 10.1199 12.7233 9.93588 14.0472 9.87088M18.2661 9.84142C20.2181 9.86626 21.3376 9.9931 22.1497 10.6407C22.3658 10.8131 22.5619 11.0091 22.7342 11.2252C23.5396 12.2351 23.5396 13.7204 23.5396 16.691C23.5396 19.6615 23.5396 21.1468 22.7342 22.1567C22.5619 22.3728 22.3658 22.5688 22.1497 22.7412C21.1398 23.5466 19.6546 23.5466 16.684 23.5466C13.7135 23.5466 12.2282 23.5466 11.2183 22.7412C11.0022 22.5688 10.8061 22.3728 10.6338 22.1567C9.98616 21.3446 9.85932 20.2251 9.83447 18.273" stroke="#5576AD" stroke-width="1.125" stroke-linecap="round"/>
<path d="M16.1326 11.9541C16.0676 13.278 15.8836 14.1299 15.3628 14.783C15.1905 14.9992 14.9944 15.1952 14.7783 15.3676C14.1252 15.8884 13.2732 16.0724 11.9493 16.1374M7.73051 16.1669C5.77846 16.142 4.65895 16.0152 3.84685 15.3676C3.63074 15.1952 3.43468 14.9992 3.26234 14.783C2.45697 13.7732 2.45697 12.2879 2.45697 9.31733C2.45697 6.34678 2.45697 4.86151 3.26233 3.85161C3.43467 3.6355 3.63074 3.43944 3.84685 3.2671C4.85674 2.46173 6.34202 2.46173 9.31257 2.46173C12.2831 2.46173 13.7684 2.46173 14.7783 3.2671C14.9944 3.43944 15.1905 3.6355 15.3628 3.85161C16.0104 4.66371 16.1373 5.78322 16.1621 7.73527" stroke="#5576AD" stroke-width="1.125" stroke-linecap="round"/>
</svg>
