<svg width="23" height="23" viewBox="0 0 23 23" fill="none" xmlns="http://www.w3.org/2000/svg">
<path d="M20.625 11.2813V6.23194C20.625 5.4904 20.625 5.11963 20.443 4.73728C20.3392 4.5192 20.1028 4.22256 19.9135 4.0727C19.5814 3.80995 19.3043 3.74647 18.75 3.61953C17.8878 3.42204 16.9368 3.31259 15.9375 3.31259C14.1402 3.31259 12.4993 3.66663 11.25 4.25009C10.0007 4.83356 8.35975 5.18759 6.5625 5.18759C5.5632 5.18759 4.61221 5.07814 3.75 4.88066C2.85003 4.67452 1.875 5.30866 1.875 6.23194V16.3307C1.875 17.0723 1.875 17.4431 2.05698 17.8254C2.16078 18.0435 2.39715 18.3401 2.58655 18.49C2.91862 18.7527 3.19575 18.8162 3.75 18.9432C4.61221 19.1406 5.5632 19.2501 6.5625 19.2501C7.93954 19.2501 9.22484 19.0423 10.3125 18.6826" stroke="#5576AD" stroke-width="1.0625" stroke-linecap="round"/>
<path d="M13.125 18.3122C13.125 18.3122 14.0625 18.3122 15 20.1872C15 20.1872 17.9779 15.4997 20.625 14.5622" stroke="#5576AD" stroke-width="1.0625" stroke-linecap="round" stroke-linejoin="round"/>
<path d="M13.5938 11.2815C13.5938 12.5759 12.5444 13.6252 11.25 13.6252C9.95558 13.6252 8.90625 12.5759 8.90625 11.2815C8.90625 9.98708 9.95558 8.93774 11.25 8.93774C12.5444 8.93774 13.5938 9.98708 13.5938 11.2815Z" stroke="#5576AD" stroke-width="1.0625"/>
<path d="M5.15625 12.2186L5.15625 12.227" stroke="#5576AD" stroke-width="1.41667" stroke-linecap="round" stroke-linejoin="round"/>
<path d="M17.3437 10.3364L17.3437 10.3448" stroke="#5576AD" stroke-width="1.41667" stroke-linecap="round" stroke-linejoin="round"/>
</svg>
