<svg width="32" height="32" viewBox="0 0 32 32" fill="none" xmlns="http://www.w3.org/2000/svg">
<path d="M0 4.00012C0 1.79098 1.79086 0.00012207 4 0.00012207H28C30.2091 0.00012207 32 1.79098 32 4.00012V28.0001C32 30.2093 30.2091 32.0001 28 32.0001H4C1.79086 32.0001 0 30.2093 0 28.0001V4.00012Z" fill="#FCEBEC"/>
<g clip-path="url(#clip0_841_46438)">
<path d="M21 11.6669L20.7321 16.0044M11 11.6669L11.4031 18.35C11.5063 20.0617 11.5579 20.9175 11.9858 21.5329C12.1973 21.8372 12.4699 22.094 12.786 22.287C13.2336 22.5602 13.7874 22.6422 14.6667 22.6669" stroke="#E25765" stroke-linecap="round"/>
<path d="M21.3332 18.0002L16.6665 22.6666M21.3332 22.6669L16.6665 18.0006" stroke="#E25765" stroke-linecap="round" stroke-linejoin="round"/>
<path d="M10 11.6668H22M18.7038 11.6668L18.2487 10.728C17.9464 10.1043 17.7952 9.79251 17.5345 9.59803C17.4766 9.5549 17.4154 9.51652 17.3513 9.4833C17.0626 9.3335 16.7161 9.3335 16.023 9.3335C15.3126 9.3335 14.9573 9.3335 14.6638 9.48958C14.5987 9.52417 14.5367 9.56409 14.4782 9.60894C14.2144 9.8113 14.0671 10.1345 13.7724 10.781L13.3686 11.6668" stroke="#E25765" stroke-linecap="round"/>
</g>
<defs>
<clipPath id="clip0_841_46438">
<rect width="16" height="16" fill="white" transform="translate(8 8.00012)"/>
</clipPath>
</defs>
</svg>
