<svg width="108" height="34" viewBox="0 0 108 34" fill="none" xmlns="http://www.w3.org/2000/svg">
<path d="M42.6455 8.62355V13.5965H41.033V6.19672H42.6455L47.4833 11.8581V6.19672H49.0959V13.5965H47.4833L42.6455 8.62355Z" fill="#E97E3B"/>
<path d="M51.9588 13.5965H50.3462V6.19672H51.9588V13.5965Z" fill="#E97E3B"/>
<path d="M56.1173 10.4938L52.8921 6.19672H54.9083L56.9245 8.88918L58.9407 6.19672H60.9568L57.7317 10.4812V13.6398H56.1191V10.4938H56.1173Z" fill="#E97E3B"/>
<path d="M58.8506 13.5965L62.8812 6.19672L66.9153 13.5965H65.1009L62.883 9.63367L60.665 13.5965H58.8506Z" fill="#083071"/>
<path d="M69.8414 7.81583V13.5983H68.2288V7.81583H65.0037V6.19855H73.0684V7.81583H69.8432H69.8414Z" fill="#E97E3B"/>
<path d="M53.8002 18.967H41.031V14.7349H61.5605C59.856 17.3732 56.9335 18.967 53.7984 18.967H53.8002Z" fill="#083071"/>
<path d="M53.7463 27.7003H41.033V23.4683H61.5624C59.8345 26.1101 56.8958 27.7003 53.7463 27.7003Z" fill="#083071"/>
<path d="M82.1313 18.9561L77.4232 18.967L84.733 27.8015L81.2088 27.7907C79.9583 27.787 78.7728 27.2269 77.9746 26.2619L71.9404 18.9688H68.1206V23.4701C68.1206 25.8084 66.2306 27.7021 63.9009 27.7021V14.7367H80.1493C80.6232 14.7367 81.007 14.3518 81.007 13.8766V10.4396H75.1854V6.20758H84.4303V16.6486C84.4303 17.9225 83.4033 18.9561 82.1331 18.9579L82.1313 18.9561Z" fill="#083071"/>
<path d="M105.704 19.0736H91.8736V23.5694C91.8736 25.9077 89.9835 27.8015 87.6538 27.8015V14.8415H103.605C104.079 14.8415 104.463 14.4566 104.463 13.9814V10.4378H87.6538V6.20575H108.008V16.7642C108.008 18.0399 106.978 19.0736 105.706 19.0736H105.704Z" fill="#083071"/>
<path d="M19.5303 30.0584C21.9663 32.4997 25.269 33.8694 28.7122 33.8694H33.8544V0.12146H29.0275H17.1177L24.087 7.00802C24.0672 5.88406 24.9699 4.96247 26.0906 4.96247H29.0275V29.0284C26.6527 29.0284 24.3753 28.0815 22.696 26.3992L9.47998 13.1447L9.53403 20.0457L19.5285 30.0584H19.5303Z" fill="#083071"/>
<path d="M24.3103 13.9543L24.3644 20.8553L11.1483 7.60076C9.46905 5.91662 7.19161 4.97155 4.81686 4.97155V29.0375H7.75376C8.87447 29.0375 9.77716 28.1159 9.75734 26.9919L16.7266 33.8785H4.81866H-0.00830078V0.128723H5.13397C8.57717 0.128723 11.8798 1.50025 14.3158 3.93973L24.3103 13.9525V13.9543Z" fill="#E97E3B"/>
</svg>
