<svg width="9" height="9" viewBox="0 0 9 9" fill="none" xmlns="http://www.w3.org/2000/svg">
<path d="M0.375 4.33333C0.375 2.46736 0.375 1.53437 0.954684 0.954684C1.53437 0.375 2.46736 0.375 4.33333 0.375C6.19931 0.375 7.1323 0.375 7.71198 0.954684C8.29167 1.53437 8.29167 2.46736 8.29167 4.33333C8.29167 6.19931 8.29167 7.1323 7.71198 7.71198C7.1323 8.29167 6.19931 8.29167 4.33333 8.29167C2.46736 8.29167 1.53437 8.29167 0.954684 7.71198C0.375 7.1323 0.375 6.19931 0.375 4.33333Z" stroke="#B1C0D9" stroke-width="0.75"/>
<path d="M4.43425 6.4165V4.33317C4.43425 4.13675 4.43425 4.03854 4.37323 3.97752C4.31221 3.9165 4.214 3.9165 4.01758 3.9165" stroke="#B1C0D9" stroke-width="0.75" stroke-linecap="round" stroke-linejoin="round"/>
<path d="M4.33 2.6665H4.33374" stroke="#B1C0D9" stroke-linecap="round" stroke-linejoin="round"/>
</svg>
