<svg width="78" height="70" viewBox="0 0 78 70" fill="none" xmlns="http://www.w3.org/2000/svg">
<g clip-path="url(#clip0_2170_405)">
<path d="M43.2569 55.8966C47.1543 59.8024 52.4383 61.9939 57.9471 61.9939H66.1743V8H58.4516H39.397L50.5472 19.0179C50.5155 17.2197 51.9597 15.7452 53.7528 15.7452H58.4516V54.2486C54.6522 54.2486 51.0085 52.7337 48.3218 50.0421L27.1772 28.836L27.2637 39.8771L43.254 55.8966H43.2569Z" fill="#083071"/>
<path d="M50.9048 30.131L50.9912 41.172L29.8467 19.9659C27.16 17.2714 23.5163 15.7594 19.7169 15.7594V54.2628H24.4157C26.2087 54.2628 27.653 52.7884 27.6213 50.9901L38.7715 62.008H19.7198H11.9971V8.01131H20.2243C25.7331 8.01131 31.0171 10.2056 34.9145 14.1086L50.9048 30.1281V30.131Z" fill="#E97E3B"/>
</g>
<defs>
<clipPath id="clip0_2170_405">
<rect width="54.0054" height="54.008" fill="white" transform="translate(11.9971 8)"/>
</clipPath>
</defs>
</svg>
