<svg width="25" height="24" viewBox="0 0 25 24" fill="none" xmlns="http://www.w3.org/2000/svg">
<path d="M16.5 5.004C16.5 4.07211 16.5 3.60617 16.6522 3.23863C16.8552 2.74857 17.2446 2.35923 17.7346 2.15624C18.1022 2.004 18.5681 2.004 19.5 2.004C20.4319 2.004 20.8978 2.004 21.2654 2.15624C21.7554 2.35923 22.1448 2.74857 22.3478 3.23863C22.5 3.60617 22.5 4.07211 22.5 5.004V9.004C22.5 9.93588 22.5 10.4018 22.3478 10.7694C22.1448 11.2594 21.7554 11.6488 21.2654 11.8518C20.8978 12.004 20.4319 12.004 19.5 12.004C18.5681 12.004 18.1022 12.004 17.7346 11.8518C17.2446 11.6488 16.8552 11.2594 16.6522 10.7694C16.5 10.4018 16.5 9.93588 16.5 9.004V5.004Z" stroke="#5576AD" stroke-width="1.5"/>
<path d="M16.5 19.004C16.5 18.0721 16.5 17.6062 16.6522 17.2386C16.8552 16.7486 17.2446 16.3592 17.7346 16.1562C18.1022 16.004 18.5681 16.004 19.5 16.004C20.4319 16.004 20.8978 16.004 21.2654 16.1562C21.7554 16.3592 22.1448 16.7486 22.3478 17.2386C22.5 17.6062 22.5 18.0721 22.5 19.004C22.5 19.9359 22.5 20.4018 22.3478 20.7694C22.1448 21.2594 21.7554 21.6488 21.2654 21.8518C20.8978 22.004 20.4319 22.004 19.5 22.004C18.5681 22.004 18.1022 22.004 17.7346 21.8518C17.2446 21.6488 16.8552 21.2594 16.6522 20.7694C16.5 20.4018 16.5 19.9359 16.5 19.004Z" stroke="#5576AD" stroke-width="1.5"/>
<path d="M2.5 16.004C2.5 14.1184 2.5 13.1756 3.08579 12.5898C3.67157 12.004 4.61438 12.004 6.5 12.004H8.5C10.3856 12.004 11.3284 12.004 11.9142 12.5898C12.5 13.1756 12.5 14.1184 12.5 16.004V18.004C12.5 19.8896 12.5 20.8324 11.9142 21.4182C11.3284 22.004 10.3856 22.004 8.5 22.004H6.5C4.61438 22.004 3.67157 22.004 3.08579 21.4182C2.5 20.8324 2.5 19.8896 2.5 18.004V16.004Z" stroke="#5576AD" stroke-width="1.5"/>
<path d="M2.5 5.004C2.5 4.07211 2.5 3.60617 2.65224 3.23863C2.85523 2.74857 3.24458 2.35923 3.73463 2.15624C4.10218 2.004 4.56812 2.004 5.5 2.004H9.5C10.4319 2.004 10.8978 2.004 11.2654 2.15624C11.7554 2.35923 12.1448 2.74857 12.3478 3.23863C12.5 3.60617 12.5 4.07211 12.5 5.004C12.5 5.93588 12.5 6.40182 12.3478 6.76936C12.1448 7.25942 11.7554 7.64877 11.2654 7.85176C10.8978 8.004 10.4319 8.004 9.5 8.004H5.5C4.56812 8.004 4.10218 8.004 3.73463 7.85176C3.24458 7.64877 2.85523 7.25942 2.65224 6.76936C2.5 6.40182 2.5 5.93588 2.5 5.004Z" stroke="#5576AD" stroke-width="1.5"/>
</svg>
