<svg width="25" height="25" viewBox="0 0 25 25" fill="none" xmlns="http://www.w3.org/2000/svg">
<path d="M12.1299 20C10.7973 20.6224 9.04695 21 7.12988 21C6.06396 21 5.04957 20.8833 4.12988 20.6726C2.54816 20.3103 2.12988 19.3796 2.12988 17.886V7.11397C2.12988 6.12914 3.16991 5.45273 4.12988 5.6726C5.04957 5.88325 6.06396 6 7.12988 6C9.04695 6 10.7973 5.62236 12.1299 5C13.4624 4.37764 15.2128 4 17.1299 4C18.1958 4 19.2102 4.11675 20.1299 4.3274C21.7116 4.68968 22.1299 5.62036 22.1299 7.11397V17.886C22.1299 18.8709 21.0899 19.5473 20.1299 19.3274C19.2102 19.1167 18.1958 19 17.1299 19C15.2128 19 13.4624 19.3776 12.1299 20Z" stroke="white" stroke-width="1.5"/>
<path d="M14.6299 12.5C14.6299 13.8807 13.5106 15 12.1299 15C10.7492 15 9.62988 13.8807 9.62988 12.5C9.62988 11.1193 10.7492 10 12.1299 10C13.5106 10 14.6299 11.1193 14.6299 12.5Z" stroke="white" stroke-width="1.5"/>
<path d="M5.62988 13.5L5.62988 13.509" stroke="white" stroke-width="2" stroke-linecap="round" stroke-linejoin="round"/>
<path d="M18.6299 11.4922L18.6299 11.5012" stroke="white" stroke-width="2" stroke-linecap="round" stroke-linejoin="round"/>
</svg>
