<svg width="28" height="24" viewBox="0 0 28 24" fill="none" xmlns="http://www.w3.org/2000/svg">
<path d="M14.1298 21.5862C12.4497 22.3709 10.2428 22.8471 7.82565 22.8471C6.4817 22.8471 5.20272 22.6999 4.04315 22.4343C2.04886 21.9775 1.52148 20.8041 1.52148 18.9209V5.33912C1.52148 4.09741 2.83279 3.24457 4.04315 3.52179C5.20272 3.78738 6.4817 3.93458 7.82565 3.93458C10.2428 3.93458 12.4497 3.45845 14.1298 2.67375C15.8099 1.88905 18.0169 1.41292 20.434 1.41292C21.7779 1.41292 23.0569 1.56012 24.2165 1.82571C26.2108 2.28249 26.7381 3.45592 26.7381 5.33912V18.9209C26.7381 20.1626 25.4268 21.0154 24.2165 20.7382C23.0569 20.4726 21.7779 20.3254 20.434 20.3254C18.0169 20.3254 15.8099 20.8016 14.1298 21.5862Z" stroke="#355C9D" stroke-width="1.89125"/>
<path d="M17.2817 12.13C17.2817 13.8708 15.8705 15.2821 14.1296 15.2821C12.3888 15.2821 10.9775 13.8708 10.9775 12.13C10.9775 10.3891 12.3888 8.97791 14.1296 8.97791C15.8705 8.97791 17.2817 10.3891 17.2817 12.13Z" stroke="#355C9D" stroke-width="1.89125"/>
<path d="M5.93457 13.3908L5.93457 13.4022" stroke="#355C9D" stroke-width="2.52167" stroke-linecap="round" stroke-linejoin="round"/>
<path d="M22.3252 10.8593L22.3252 10.8706" stroke="#355C9D" stroke-width="2.52167" stroke-linecap="round" stroke-linejoin="round"/>
</svg>
