<svg width="24" height="25" viewBox="0 0 24 25" fill="none" xmlns="http://www.w3.org/2000/svg">
<path d="M7.35396 18.5C5.23084 18.5 4.16928 18.5 3.41349 18.0468C2.91953 17.7506 2.52158 17.3271 2.26475 16.8242C1.87179 16.0547 1.97742 15.0373 2.18868 13.0025C2.36503 11.3039 2.45321 10.4545 2.88684 9.83081C3.17153 9.42129 3.55659 9.08564 4.00797 8.85353C4.69548 8.5 5.58164 8.5 7.35396 8.5H16.646C18.4184 8.5 19.3045 8.5 19.992 8.85353C20.4434 9.08564 20.8285 9.42129 21.1132 9.83081C21.5468 10.4545 21.635 11.3039 21.8113 13.0025C22.0226 15.0373 22.1282 16.0547 21.7352 16.8242C21.4784 17.3271 21.0805 17.7506 20.5865 18.0468C19.8307 18.5 18.7692 18.5 16.646 18.5" stroke="white" stroke-width="1.5"/>
<path d="M17 8.5V6.5C17 4.61438 17 3.67157 16.4142 3.08579C15.8284 2.5 14.8856 2.5 13 2.5H11C9.11438 2.5 8.17157 2.5 7.58579 3.08579C7 3.67157 7 4.61438 7 6.5V8.5" stroke="white" stroke-width="1.5" stroke-linejoin="round"/>
<path d="M13.9887 16.5L10.0113 16.5C9.32602 16.5 8.98337 16.5 8.69183 16.6089C8.30311 16.754 7.97026 17.036 7.7462 17.4099C7.57815 17.6904 7.49505 18.0511 7.32884 18.7724C7.06913 19.8995 6.93928 20.463 7.02759 20.9149C7.14535 21.5174 7.51237 22.0274 8.02252 22.2974C8.40513 22.5 8.94052 22.5 10.0113 22.5L13.9887 22.5C15.0595 22.5 15.5949 22.5 15.9775 22.2974C16.4876 22.0274 16.8547 21.5174 16.9724 20.9149C17.0607 20.463 16.9309 19.8995 16.6712 18.7724C16.505 18.0511 16.4218 17.6904 16.2538 17.4099C16.0297 17.036 15.6969 16.754 15.3082 16.6089C15.0166 16.5 14.674 16.5 13.9887 16.5Z" stroke="white" stroke-width="1.5" stroke-linejoin="round"/>
<path d="M18 12.5H18.009" stroke="white" stroke-width="2" stroke-linecap="round" stroke-linejoin="round"/>
</svg>
