<svg width="26" height="26" viewBox="0 0 26 26" fill="none" xmlns="http://www.w3.org/2000/svg">
<path d="M10.891 6.67869C10.891 4.34973 9.00296 2.46173 6.674 2.46173C4.34503 2.46173 2.45703 4.34973 2.45703 6.67869C2.45703 9.00766 4.34503 10.8957 6.674 10.8957C9.00296 10.8957 10.891 9.00766 10.891 6.67869Z" stroke="#5576AD" stroke-width="1.125"/>
<path d="M10.891 19.3296C10.891 17.0006 9.00296 15.1126 6.674 15.1126C4.34503 15.1126 2.45703 17.0006 2.45703 19.3296C2.45703 21.6585 4.34503 23.5465 6.674 23.5465C9.00296 23.5465 10.891 21.6585 10.891 19.3296Z" stroke="#5576AD" stroke-width="1.125"/>
<path d="M23.5418 6.67869C23.5418 4.34973 21.6538 2.46173 19.3249 2.46173C16.9959 2.46173 15.1079 4.34973 15.1079 6.67869C15.1079 9.00766 16.9959 10.8957 19.3249 10.8957C21.6538 10.8957 23.5418 9.00766 23.5418 6.67869Z" stroke="#5576AD" stroke-width="1.125"/>
<path d="M23.5418 19.3296C23.5418 17.0006 21.6538 15.1126 19.3249 15.1126C16.9959 15.1126 15.1079 17.0006 15.1079 19.3296C15.1079 21.6585 16.9959 23.5465 19.3249 23.5465C21.6538 23.5465 23.5418 21.6585 23.5418 19.3296Z" stroke="#5576AD" stroke-width="1.125"/>
</svg>
