<svg width="19" height="19" viewBox="0 0 19 19" fill="none" xmlns="http://www.w3.org/2000/svg">
<path d="M7.10899 1.58077C4.89838 1.63132 3.60718 1.84248 2.72497 2.72469C1.84276 3.6069 1.6316 4.8981 1.58105 7.10871M11.8609 1.58077C14.0715 1.63132 15.3627 1.84248 16.2449 2.72469C17.1271 3.6069 17.3382 4.8981 17.3888 7.10871M11.8609 17.3885C14.0715 17.338 15.3627 17.1268 16.2449 16.2446C17.1271 15.3624 17.3382 14.0712 17.3888 11.8606M7.10899 17.3885C4.89838 17.338 3.60718 17.1268 2.72497 16.2446C1.84276 15.3624 1.6316 14.0712 1.58105 11.8606" stroke="#F8FAFD" stroke-width="1.18558" stroke-linecap="round" stroke-linejoin="round"/>
<path d="M13.4364 5.53271H13.4435" stroke="#F8FAFD" stroke-width="1.58077" stroke-linecap="round" stroke-linejoin="round"/>
<path d="M10.2754 4.74232V7.11348C10.2754 8.60385 10.2754 9.34904 9.81238 9.81203C9.34939 10.275 8.6042 10.275 7.11384 10.275H4.74268" stroke="#F8FAFD" stroke-width="1.18558" stroke-linecap="round"/>
<path d="M4.97417 4.97382C4.74268 5.20532 4.74268 5.57791 4.74268 6.3231C4.74268 7.06828 4.74268 7.44087 4.97417 7.67237M4.97417 4.97382C5.20567 4.74232 5.57827 4.74232 6.32345 4.74232C7.06863 4.74232 7.44122 4.74232 7.67272 4.97382M4.97417 4.97382C4.97417 4.97382 4.97417 4.97382 4.97417 4.97382ZM4.97417 7.67237C5.20567 7.90387 5.57827 7.90387 6.32345 7.90387C7.06863 7.90387 7.44122 7.90387 7.67272 7.67237M4.97417 7.67237C4.97417 7.67237 4.97417 7.67237 4.97417 7.67237ZM7.67272 7.67237C7.90422 7.44087 7.90422 7.06828 7.90422 6.3231C7.90422 5.57791 7.90422 5.20532 7.67272 4.97382M7.67272 7.67237C7.67272 7.67237 7.67272 7.67237 7.67272 7.67237ZM7.67272 4.97382C7.67272 4.97382 7.67272 4.97382 7.67272 4.97382Z" stroke="#F8FAFD" stroke-width="1.18558"/>
<path d="M13.4366 11.8558C13.8092 11.8558 13.9955 11.8558 14.1112 11.9715C14.227 12.0873 14.227 12.2736 14.227 12.6462V13.4366C14.227 13.8092 14.227 13.9955 14.1112 14.1112C13.9955 14.227 13.8092 14.227 13.4366 14.227H11.8558C11.4832 14.227 11.2969 14.227 11.1812 14.1112C11.0654 13.9955 11.0654 13.8092 11.0654 13.4366L11.0654 12.6462C11.0654 12.2736 11.0654 12.0873 11.1812 11.9715C11.2969 11.8558 11.4832 11.8558 11.8558 11.8558L13.4366 11.8558Z" stroke="#F8FAFD" stroke-width="1.18558"/>
<path d="M4.74268 14.227H8.69461" stroke="#F8FAFD" stroke-width="1.18558" stroke-linecap="round"/>
<path d="M13.4365 7.90387L13.4365 9.48464" stroke="#F8FAFD" stroke-width="1.18558" stroke-linecap="round"/>
</svg>
