<svg width="19" height="19" viewBox="0 0 19 19" fill="none" xmlns="http://www.w3.org/2000/svg">
<path d="M7.10899 1.58069C4.89838 1.63123 3.60718 1.8424 2.72497 2.72461C1.84276 3.60682 1.6316 4.89801 1.58105 7.10862M11.8609 1.58069C14.0715 1.63123 15.3627 1.8424 16.2449 2.72461C17.1271 3.60682 17.3382 4.89801 17.3888 7.10862M11.8609 17.3884C14.0715 17.3379 15.3627 17.1267 16.2449 16.2445C17.1271 15.3623 17.3382 14.0711 17.3888 11.8605M7.10899 17.3884C4.89838 17.3379 3.60718 17.1267 2.72497 16.2445C1.84276 15.3623 1.6316 14.0711 1.58105 11.8605" stroke="#122B54" stroke-width="1.18558" stroke-linecap="round" stroke-linejoin="round"/>
<path d="M13.4364 5.53271H13.4435" stroke="#122B54" stroke-width="1.58077" stroke-linecap="round" stroke-linejoin="round"/>
<path d="M10.2754 4.74231V7.11347C10.2754 8.60384 10.2754 9.34902 9.81238 9.81202C9.34939 10.275 8.6042 10.275 7.11384 10.275H4.74268" stroke="#122B54" stroke-width="1.18558" stroke-linecap="round"/>
<path d="M4.97417 4.97381C4.74268 5.20531 4.74268 5.5779 4.74268 6.32308C4.74268 7.06827 4.74268 7.44086 4.97417 7.67236M4.97417 4.97381C5.20567 4.74231 5.57827 4.74231 6.32345 4.74231C7.06863 4.74231 7.44122 4.74231 7.67272 4.97381M4.97417 4.97381C4.97417 4.97381 4.97417 4.97381 4.97417 4.97381ZM4.97417 7.67236C5.20567 7.90386 5.57827 7.90386 6.32345 7.90386C7.06863 7.90386 7.44122 7.90386 7.67272 7.67236M4.97417 7.67236C4.97417 7.67236 4.97417 7.67236 4.97417 7.67236ZM7.67272 7.67236C7.90422 7.44086 7.90422 7.06827 7.90422 6.32308C7.90422 5.5779 7.90422 5.20531 7.67272 4.97381M7.67272 7.67236C7.67272 7.67236 7.67272 7.67236 7.67272 7.67236ZM7.67272 4.97381C7.67272 4.97381 7.67272 4.97381 7.67272 4.97381Z" stroke="#122B54" stroke-width="1.18558"/>
<path d="M13.4366 11.8557C13.8092 11.8557 13.9955 11.8557 14.1112 11.9715C14.227 12.0872 14.227 12.2735 14.227 12.6461V13.4365C14.227 13.8091 14.227 13.9954 14.1112 14.1111C13.9955 14.2269 13.8092 14.2269 13.4366 14.2269H11.8558C11.4832 14.2269 11.2969 14.2269 11.1812 14.1111C11.0654 13.9954 11.0654 13.8091 11.0654 13.4365L11.0654 12.6461C11.0654 12.2735 11.0654 12.0872 11.1812 11.9715C11.2969 11.8557 11.4832 11.8557 11.8558 11.8557L13.4366 11.8557Z" stroke="#122B54" stroke-width="1.18558"/>
<path d="M4.74268 14.2269H8.69461" stroke="#122B54" stroke-width="1.18558" stroke-linecap="round"/>
<path d="M13.4365 7.90381L13.4365 9.48458" stroke="#122B54" stroke-width="1.18558" stroke-linecap="round"/>
</svg>
