<svg width="22" height="22" viewBox="0 0 22 22" fill="none" xmlns="http://www.w3.org/2000/svg">
<path d="M14.75 3.75C14.75 2.81812 14.75 2.35218 14.9022 1.98463C15.1052 1.49458 15.4946 1.10523 15.9846 0.902241C16.3522 0.75 16.8181 0.75 17.75 0.75C18.6819 0.75 19.1478 0.75 19.5154 0.902241C20.0054 1.10523 20.3948 1.49458 20.5978 1.98463C20.75 2.35218 20.75 2.81812 20.75 3.75V7.75C20.75 8.68188 20.75 9.14782 20.5978 9.51537C20.3948 10.0054 20.0054 10.3948 19.5154 10.5978C19.1478 10.75 18.6819 10.75 17.75 10.75C16.8181 10.75 16.3522 10.75 15.9846 10.5978C15.4946 10.3948 15.1052 10.0054 14.9022 9.51537C14.75 9.14782 14.75 8.68188 14.75 7.75V3.75Z" stroke="#5576AD" stroke-width="1.5"/>
<path d="M14.75 17.75C14.75 16.8181 14.75 16.3522 14.9022 15.9846C15.1052 15.4946 15.4946 15.1052 15.9846 14.9022C16.3522 14.75 16.8181 14.75 17.75 14.75C18.6819 14.75 19.1478 14.75 19.5154 14.9022C20.0054 15.1052 20.3948 15.4946 20.5978 15.9846C20.75 16.3522 20.75 16.8181 20.75 17.75C20.75 18.6819 20.75 19.1478 20.5978 19.5154C20.3948 20.0054 20.0054 20.3948 19.5154 20.5978C19.1478 20.75 18.6819 20.75 17.75 20.75C16.8181 20.75 16.3522 20.75 15.9846 20.5978C15.4946 20.3948 15.1052 20.0054 14.9022 19.5154C14.75 19.1478 14.75 18.6819 14.75 17.75Z" stroke="#5576AD" stroke-width="1.5"/>
<path d="M0.75 14.75C0.75 12.8644 0.75 11.9216 1.33579 11.3358C1.92157 10.75 2.86438 10.75 4.75 10.75H6.75C8.63562 10.75 9.57843 10.75 10.1642 11.3358C10.75 11.9216 10.75 12.8644 10.75 14.75V16.75C10.75 18.6356 10.75 19.5784 10.1642 20.1642C9.57843 20.75 8.63562 20.75 6.75 20.75H4.75C2.86438 20.75 1.92157 20.75 1.33579 20.1642C0.75 19.5784 0.75 18.6356 0.75 16.75V14.75Z" stroke="#5576AD" stroke-width="1.5"/>
<path d="M0.75 3.75C0.75 2.81812 0.75 2.35218 0.902241 1.98463C1.10523 1.49458 1.49458 1.10523 1.98463 0.902241C2.35218 0.75 2.81812 0.75 3.75 0.75H7.75C8.68188 0.75 9.14782 0.75 9.51537 0.902241C10.0054 1.10523 10.3948 1.49458 10.5978 1.98463C10.75 2.35218 10.75 2.81812 10.75 3.75C10.75 4.68188 10.75 5.14782 10.5978 5.51537C10.3948 6.00542 10.0054 6.39477 9.51537 6.59776C9.14782 6.75 8.68188 6.75 7.75 6.75H3.75C2.81812 6.75 2.35218 6.75 1.98463 6.59776C1.49458 6.39477 1.10523 6.00542 0.902241 5.51537C0.75 5.14782 0.75 4.68188 0.75 3.75Z" stroke="#5576AD" stroke-width="1.5"/>
</svg>
